Coordinates
version=1
nRows=11
nColumns=33
inDegrees=yes

Units are S.I. units (second, meters, Newtons, ...)
Angles are in degrees.

endheader
time	ground_thorax_rot_x	ground_thorax_rot_y	ground_thorax_rot_z	ground_thorax_tx	ground_thorax_ty	ground_thorax_tz	clav_prot_r	clav_elev_r	scapula_abduction_r	scapula_elevation_r	scapula_upward_rot_r	scapula_winging_r	shoulder_elv_r	plane_of_elev_r	axial_rot_r	elbow_flexion_r	pro_sup_r	wrist_flex_r	wrist_dev_r	clav_prot_l	clav_elev_l	scapula_abduction_l	scapula_elevation_l	scapula_upward_rot_l	scapula_winging_l	shoulder_elv_l	plane_of_elev_l	axial_rot_l	elbow_flexion_l	pro_sup_l	wrist_flex_l	wrist_dev_l	
4.0600	-26.731944	-35.224888	46.866402	-92.967910	857.277974	-49.581182	21.878971	-45.000000	45.000884	-45.000000	-22.509474	2402.531272	-1533.185969	144.451306	-180.000000	3591.047488	421.930176	30.265647	15.889787	-2.790654	34.374086	-32.140700	-45.000000	-45.000000	2972.608242	-6040.676521	26.277319	41.657974	1788.260582	-327.545721	15.314138	-19.754069	
4.0700	-26.706327	-35.188063	46.890543	-93.446820	856.990114	-49.561777	22.166933	-45.000000	44.996830	-45.000000	-22.513332	2402.502288	-1533.199179	144.479059	-180.000000	3590.972017	421.647498	30.260657	15.984329	-2.744822	34.352325	-32.090874	-45.000000	-45.000000	2972.624724	-6040.714108	26.278661	41.537119	1788.358156	-326.763648	15.192163	-19.965278	
4.0800	-26.677318	-35.150672	46.923360	-93.895241	856.695618	-49.537106	22.610078	-45.000000	44.994482	-45.000000	-22.462333	2402.485573	-1533.197323	144.525556	-180.000000	3590.891453	421.395273	30.275907	16.109948	-2.638584	34.305107	-32.065686	-45.000000	-45.000000	2972.639712	-6040.771342	26.266618	41.398781	1788.449439	-326.020364	15.086018	-20.135916	
4.0900	-26.621827	-35.127637	46.994975	-94.280492	856.386014	-49.501651	22.823238	-45.000000	44.992289	-45.000000	-22.514485	2402.442001	-1533.231129	144.535429	-180.000000	3590.839738	421.201993	30.285468	16.173250	-2.604057	34.279619	-32.020050	-45.000000	-45.000000	2972.643174	-6040.807141	26.256015	41.320027	1788.522086	-325.412687	14.987259	-20.296839	
4.1000	-26.551548	-35.111293	47.086370	-94.594971	856.061634	-49.455156	22.941200	-45.000000	44.990088	-45.000000	-22.611070	2402.396657	-1533.286014	144.536955	-180.000000	3590.805091	421.055883	30.282131	16.180392	-2.619508	34.280563	-31.963625	-45.000000	-45.000000	2972.638290	-6040.836528	26.249637	41.272202	1788.577806	-324.923622	14.904211	-20.455094	
4.1100	-26.461740	-35.103060	47.209640	-94.827175	855.721717	-49.396965	23.002331	-45.000000	44.988669	-45.000000	-22.733426	2402.339308	-1533.348632	144.526158	-180.000000	3590.792282	420.962452	30.288603	16.172378	-2.638305	34.276038	-31.908506	-45.000000	-45.000000	2972.624925	-6040.864612	26.237951	41.252782	1788.624960	-324.546481	14.834728	-20.578746	
4.1200	-26.356756	-35.101272	47.352367	-94.973439	855.368343	-49.328246	23.022251	-45.000000	44.986925	-45.000000	-22.863817	2402.285474	-1533.414911	144.512063	-180.000000	3590.790079	420.903282	30.293336	16.135338	-2.686838	34.287082	-31.841820	-45.000000	-45.000000	2972.611693	-6040.894378	26.237917	41.255175	1788.661281	-324.265439	14.782191	-20.703553	
4.1300	-26.240161	-35.102744	47.518704	-95.035166	855.004570	-49.250939	23.071356	-45.000000	44.984484	-45.000000	-22.972463	2402.227242	-1533.470714	144.495354	-180.000000	3590.799046	420.875520	30.316521	16.127732	-2.697155	34.270401	-31.788949	-45.000000	-45.000000	2972.592106	-6040.930361	26.227396	41.262760	1788.699054	-324.046044	14.738226	-20.779896	
4.1400	-26.115901	-35.107909	47.695605	-95.016176	854.633967	-49.167149	23.099445	-45.000000	44.981120	-45.000000	-23.070187	2402.176672	-1533.525913	144.480151	-180.000000	3590.811080	420.858262	30.342233	16.107319	-2.727086	34.266590	-31.723322	-45.000000	-45.000000	2972.578036	-6040.962345	26.237899	41.279673	1788.718895	-323.880680	14.710709	-20.867420	
4.1500	-25.991433	-35.110651	47.882471	-94.922862	854.259619	-49.078653	23.142590	-45.000000	44.973710	-45.000000	-23.150150	2402.124593	-1533.579774	144.464466	-180.000000	3590.833389	420.856972	30.370572	16.112506	-2.725808	34.239776	-31.675990	-45.000000	-45.000000	2972.547872	-6040.990746	26.230312	41.293048	1788.737352	-323.748063	14.683904	-20.901269	
4.1600	-25.866654	-35.115786	48.071162	-94.763558	853.885144	-48.987136	23.170449	-45.000000	44.965941	-45.000000	-23.217413	2402.086511	-1533.636408	144.454448	-180.000000	3590.849531	420.858605	30.400499	16.111376	-2.742250	34.226164	-31.624638	-45.000000	-45.000000	2972.523701	-6041.014110	26.236093	41.311942	1788.736533	-323.649303	14.669205	-20.946420	
